<svg xmlns="http://www.w3.org/2000/svg" viewBox="0 0 100 100" width="200" height="200">
  <path d="M25 72 Q20 72 20 64 Q20 56 28 54 Q28 42 40 38 Q44 28 56 28 Q68 28 72 38 Q84 42 84 54 Q92 56 92 64 Q92 72 87 72Z" fill="#A8DAFF"/>
  <circle cx="42" cy="48" r="4" fill="#1A1A2E"/>
  <circle cx="58" cy="48" r="4" fill="#1A1A2E"/>
  <circle cx="43.5" cy="46.5" r="1.3" fill="#fff"/>
  <circle cx="59.5" cy="46.5" r="1.3" fill="#fff"/>
  <ellipse cx="32" cy="56" rx="5" ry="3" fill="#FF6B9D" opacity="0.25"/>
  <ellipse cx="68" cy="56" rx="5" ry="3" fill="#FF6B9D" opacity="0.25"/>
  <path d="M40 62 Q50 54 60 62" stroke="#1A1A2E" stroke-width="2.5" fill="none" stroke-linecap="round"/>
</svg>
