<svg xmlns="http://www.w3.org/2000/svg" viewBox="0 0 100 100" width="200" height="200">
  <path d="M50 22 C62 22 72 32 72 44 C72 56 62 66 50 66 C38 66 28 56 28 44 C28 32 38 22 50 22Z" fill="#C8F542"/>
  <line x1="50" y1="10" x2="50" y2="16" stroke="#C8F542" stroke-width="3" stroke-linecap="round"/>
  <line x1="50" y1="72" x2="50" y2="78" stroke="#C8F542" stroke-width="3" stroke-linecap="round"/>
  <line x1="16" y1="44" x2="22" y2="44" stroke="#C8F542" stroke-width="3" stroke-linecap="round"/>
  <line x1="78" y1="44" x2="84" y2="44" stroke="#C8F542" stroke-width="3" stroke-linecap="round"/>
  <line x1="26" y1="20" x2="30" y2="24" stroke="#C8F542" stroke-width="3" stroke-linecap="round"/>
  <line x1="70" y1="64" x2="74" y2="68" stroke="#C8F542" stroke-width="3" stroke-linecap="round"/>
  <line x1="26" y1="68" x2="30" y2="64" stroke="#C8F542" stroke-width="3" stroke-linecap="round"/>
  <line x1="70" y1="20" x2="74" y2="24" stroke="#C8F542" stroke-width="3" stroke-linecap="round"/>
  <circle cx="42" cy="48" r="4" fill="#1A1A2E"/>
  <circle cx="58" cy="48" r="4" fill="#1A1A2E"/>
  <circle cx="43.5" cy="46.5" r="1.3" fill="#fff"/>
  <circle cx="59.5" cy="46.5" r="1.3" fill="#fff"/>
  <ellipse cx="32" cy="56" rx="5" ry="3" fill="#FF6B9D" opacity="0.3"/>
  <ellipse cx="68" cy="56" rx="5" ry="3" fill="#FF6B9D" opacity="0.3"/>
  <path d="M38 56 Q50 66 62 56" stroke="#1A1A2E" stroke-width="2.5" fill="none" stroke-linecap="round"/>
</svg>
