<svg xmlns="http://www.w3.org/2000/svg" viewBox="0 0 100 100" width="200" height="200">
  <path d="M50 12 C68 8, 90 22, 88 46 C86 68, 70 90, 50 88 C30 86, 12 70, 14 48 C16 26, 32 16, 50 12Z" fill="#8FA8C0"/>
  <circle cx="42" cy="48" r="4" fill="#1A1A2E"/>
  <circle cx="58" cy="48" r="4" fill="#1A1A2E"/>
  <circle cx="43.5" cy="46.5" r="1.3" fill="#fff"/>
  <circle cx="59.5" cy="46.5" r="1.3" fill="#fff"/>
  <ellipse cx="32" cy="56" rx="5" ry="3" fill="#FF6B9D" opacity="0.2"/>
  <ellipse cx="68" cy="56" rx="5" ry="3" fill="#FF6B9D" opacity="0.2"/>
  <path d="M38 66 Q50 56 62 66" stroke="#1A1A2E" stroke-width="2.5" fill="none" stroke-linecap="round"/>
  <path d="M28 50 Q30 60 26 70 Q30 68 34 60 Z" fill="rgba(168,218,255,0.5)"/>
</svg>
