<svg xmlns="http://www.w3.org/2000/svg" viewBox="0 0 100 100" width="200" height="200">
  <polygon points="50,6 62,12 78,8 88,22 96,38 92,56 96,72 84,86 68,92 50,88 32,92 16,86 4,72 8,56 4,38 12,22 22,8 38,12" fill="#8FA8C0"/>
  <circle cx="42" cy="48" r="4" fill="#1A1A2E"/>
  <circle cx="58" cy="48" r="4" fill="#1A1A2E"/>
  <circle cx="43.5" cy="46.5" r="1.3" fill="#fff"/>
  <circle cx="59.5" cy="46.5" r="1.3" fill="#fff"/>
  <ellipse cx="32" cy="56" rx="5" ry="3" fill="#FF6B9D" opacity="0.2"/>
  <ellipse cx="68" cy="56" rx="5" ry="3" fill="#FF6B9D" opacity="0.2"/>
  <path d="M42 62 L58 62" stroke="#1A1A2E" stroke-width="2.5" fill="none" stroke-linecap="round"/>
  <ellipse cx="72" cy="30" rx="3" ry="5" fill="#A8DAFF" opacity="0.6"/>
</svg>
